<svg version="1" xmlns="http://www.w3.org/2000/svg" width="933.333" height="933.333" viewBox="0 0 700.000000 700.000000"><path d="M157.8 117.7c32.4 64.8 81.5 163.1 109.2 218.5 27.6 55.5 50.5 100.8 50.8 100.8.4 0 8.5-14.3 18-31.8 9.5-17.4 23.8-43.6 31.8-58.2 8-14.6 16.4-29.9 18.6-34 2.3-4.1 6-10.9 8.3-15 2.3-4.1 5.8-10.6 7.9-14.3 2-3.7 4.5-8.2 5.5-10 1-1.8 3.9-7.3 6.6-12.2 2.6-5 6.5-11.9 8.5-15.5 3.2-5.5 12.5-22.5 24-43.5 1.5-2.8 4.1-7.6 5.8-10.8 1.8-3.1 4.5-8.1 6.1-11 1.5-2.8 4-7.2 5.3-9.7 4.2-7.6 25.4-46.2 28.4-51.7 1.5-2.9 2.9-5.2 3-5 .1.1 1.9 8.7 3.8 19.2 2 10.4 4.1 20.8 4.6 23 .5 2.2 2.8 13.7 5 25.5 2.3 11.8 4.7 24.6 5.5 28.5.8 3.8 1.7 8.1 1.9 9.5.2 1.4 2.3 11.7 4.5 23 4.7 24 4.6 23.9 6.1 31 .6 3 1.3 6.6 1.5 8 .3 1.4 1.8 9.5 3.5 18 3.1 15.3 9.7 49.1 10.6 54 1.7 9 5.8 29.7 7 36 .9 4.1 1.8 8.6 2 10 .3 1.4 2 10.4 3.9 20s3.6 18.6 3.9 20c.2 1.4 1.8 9.5 3.5 18 1.8 8.5 3.4 17 3.7 18.9.3 1.8.7 4.1.9 5 .2.9 1.5 7.7 3 15.1 1.4 7.4 3.3 16.5 4.1 20.2.7 3.6 1.7 8.3 2 10.5.3 2.1 1.8 9.9 3.4 17.3l2.7 13.5-4.7 5c-6.5 6.9-8.5 10.1-10.9 17.3-6.8 20.2 2.7 42.4 22.4 52.1 31.3 15.4 67.2-12.7 60-47.2-1.8-8.6-5.5-15.4-11.8-21.7-4.9-5-15.3-11-18.9-11-2.3 0-3.4-2.5-5.2-12.5-1.3-6.9-6.7-34.7-11.2-57-.8-3.9-1.6-8.2-1.9-9.6-.3-1.4-1.9-9.5-3.6-18-1.7-8.5-3.3-16.5-3.5-17.9-.2-1.4-.7-3.6-1-5-.3-1.4-.8-3.6-1-5-.3-1.4-1.8-9-3.4-17-2.7-13.5-9.3-47.3-10.4-53-.2-1.4-1.6-8.1-3-15s-2.8-14.1-3.1-16c-.3-1.9-.8-4.2-1-5-.2-.8-.7-3-1-4.8-.3-1.8-1.2-6.4-2-10.2-.8-3.8-1.7-8.4-2-10.2-.3-1.8-1.7-8.5-3-14.8-1.3-6.3-2.6-13.1-3-15-.3-1.9-1.4-7.8-2.5-13s-2.1-10.6-2.4-12c-.2-1.4-1.8-9.3-3.5-17.5-1.6-8.3-3.2-16.3-3.5-17.9-.3-1.6-1-5.2-1.6-8-.6-2.8-1.2-6.2-1.5-7.6-.3-1.4-.9-4.8-1.5-7.5-.5-2.8-1.1-6.1-1.4-7.5-.2-1.4-.7-3.6-1-5-.3-1.4-.8-3.6-1-5-.3-1.4-1.4-7-2.5-12.5s-2.3-11.6-2.6-13.5c-.3-1.9-1-5.3-1.5-7.5s-1.2-5.6-1.5-7.5c-.3-1.9-1-5.3-1.5-7.5s-1.2-5.5-1.5-7.4c-.3-1.9-2-10.3-3.6-18.5-1.7-8.3-3.3-16.2-3.5-17.6-.5-2.8-4.3-21.4-5-24.5-.2-1.1-.7-3.6-1-5.5-1.2-7.4-.3-7-13.4-6.7-6.6.2-12.1.5-12.3.7-.2.3-7.5 14-16.2 30.5-8.6 16.5-17.4 33.1-19.5 37-2.1 3.8-7.9 14.9-13 24.5-9.6 18.2-12 22.8-26.2 49.5-4.7 8.8-11.1 20.9-14.3 27-10.6 20.2-14.7 28-18.5 35-2.1 3.8-6.1 11.5-9 17-2.9 5.5-6.7 12.7-8.5 16-1.8 3.3-5.5 10.3-8.2 15.5-2.8 5.2-9.3 17.6-14.6 27.5-5.2 9.9-12.2 23-15.4 29.1-3.2 6.1-6.5 12.2-7.4 13.5-1.6 2.3-3-.5-61.7-117.6C165.3 58.8 137.2 2.9 136 1.5 135.1.4 130.6.1 116.9 0H99l58.8 117.7zm457.7 462.1c10.4 5.3 11.6 20.4 2.2 27.6-8.1 6.2-19.2 3.8-24.4-5.2-2.2-3.6-2.5-5.1-2-9.4 1.5-12.3 13.1-18.6 24.2-13z"/><path d="M98.6 134c-11.5 2-24.2 11.3-30 21.9-5.1 9.5-6.3 21.6-3.2 32.5 2 6.8 8.3 16.5 13.6 20.7 4.5 3.6 4.4 3.2 2.4 14.9-.5 3.3-6.9 40.5-7.8 46-.3 1.4-.8 4.3-1.1 6.5-.4 2.2-.8 4.4-.9 5-.2.5-.6 3.2-1 6-.4 2.7-1.6 9.7-2.6 15.5-2 11.1-2.6 14.1-3.5 20.4-.4 2.1-.9 4.8-1.1 6-.2 1.1-.7 4.1-1 6.6-.3 2.5-.7 4.7-.9 5-.2.3-.6 3-1 6s-.8 5.7-1 6c-.2.3-.6 2.6-1 5-.3 2.5-1.1 6.9-1.6 9.9-.6 3-1.2 6.4-1.4 7.5-.4 3-7.2 43-8.4 49.3-.6 2.9-1.3 7.4-1.7 10-.3 2.6-1 6.7-1.5 9.1-.5 2.3-1.2 5.9-1.5 8-.6 3.9-3.3 19.7-5.9 34.7-.9 4.9-1.8 10.6-2.1 12.5-.2 1.9-1.4 8.7-2.5 15-1.2 6.3-2.3 12.4-2.5 13.5-.4 2.3-4.2 25.4-5 30-.3 1.6-2 11.8-3.9 22.5-1.8 10.7-3.6 20.8-3.8 22.5-.3 1.6-1.2 7.3-2.2 12.5-.9 5.2-1.8 10.6-2 12-.4 2.7-4 23.3-5 29-.3 1.9-1.9 11.4-3.6 21-1.6 9.6-3.2 18.7-3.5 20.3l-.6 2.7 80.3-.2 80.3-.3.7-4c.4-2.2 1-5.8 1.3-8 .4-2.2.9-5.1 1.1-6.5.2-1.4 2.6-16 5.4-32.5 2.7-16.5 5.2-31.4 5.5-33 .3-1.7 1.2-7.1 2-12 .9-5 1.8-10.8 2.1-13 .3-2.2 1-6.5 1.6-9.5.5-3 1.1-6.9 1.4-8.5.3-1.7.8-4.6 1.1-6.5 1-5.8 1.2-7.3 1.9-11.5.9-6.2 2.4-15.7 3-18.5.2-1.3.7-4.2 1-6.5.3-2.2.8-4.7 1-5.5.2-.8.6-3.3 1-5.5.5-3.7 2.1-13.2 3-18 .2-1.1.4-2.9.4-4 .1-2.7 1.1-1.4 7.1 10 2.9 5.5 11.3 21.2 18.8 35 7.4 13.7 15.1 28.1 17.2 32 2.1 3.8 6.8 12.6 10.5 19.5 6.9 12.9 11.8 22 18.8 35 2.2 4.1 4.7 8.8 5.7 10.5.9 1.6 3.9 7 6.5 12 2.6 4.9 6 11.2 7.5 14 1.5 2.7 5.1 9.5 8.1 15 2.9 5.5 6.5 12.2 8 15l2.8 5h24.6l11.8-21.5c6.5-11.8 13.9-25.3 16.4-30 2.5-4.7 5.4-9.9 6.3-11.5 1.8-3 4.2-7.5 10.8-19.5 1.9-3.6 5.6-10.3 8.2-15 2.6-4.7 6.4-11.7 8.5-15.5 2.1-3.9 9.5-17.4 16.5-30 6.9-12.7 12.9-23.7 13.3-24.5.4-.8 2.3-4.2 4.2-7.5 1.9-3.3 6.1-10.8 9.2-16.7 3.2-5.9 5.9-10.6 6-10.4.2.2 2.7 15.1 3.8 23.1.3 2.2.8 5.1 1 6.5.2 1.4.7 4.5 1 7 .3 2.5 1 7 1.5 10s1.2 7.5 1.5 10c.3 2.5.8 5.6 1 7 .2 1.4.7 4.3 1 6.5.3 2.2 1 6.7 1.5 10s1.2 8.2 1.5 11c.4 2.7.8 5.7 1 6.5.2.8.7 3.7 1 6.5.7 5.4.9 6.6 2.5 17 .6 3.8 1.3 8.6 1.6 10.5.2 1.9.6 4.6.9 6 .2 1.4.7 4.7 1 7.5.4 2.7.8 5.7 1 6.5.2.8.7 3.5 1 6 .3 2.5.8 5.6 1 7 .8 5.8 1.7 11.7 2 14 .3 1.4.9 5.6 1.5 9.5.5 3.8 1.3 8.7 1.6 10.8l.7 3.7h114.3c62.9 0 114.4-.3 114.4-.6s-.6-3.2-1.4-6.3c-.8-3.1-1.7-7-1.9-8.6-.7-4.2-3.7-17.8-4-18.1-.2-.2-81-1.1-170.2-1.8l-19-.2-1.1-7.9c-1.3-8.6-1.4-9.7-4.5-28.5-2.2-14.2-2.5-15.7-3.4-22-1.4-9.4-2.1-13.7-3.5-22-.6-3-1.2-7.5-1.5-10-.4-2.5-1-6.8-1.6-9.5-.5-2.8-1.1-6.4-1.3-8-.2-1.7-.9-6.4-1.6-10.5-.6-4.1-1.3-8.6-1.5-10-.2-1.4-.9-5.7-1.5-9.5-.6-3.9-1.3-8.4-1.6-10-.2-1.7-.6-4.1-.9-5.5-.3-1.4-.7-4.3-1-6.5-.4-2.2-1.7-11-3.1-19.5-1.3-8.5-2.6-16.9-2.9-18.5-.4-3.2-2.2-14.4-5.4-34.5-1.1-6.9-2.2-14.3-2.6-16.5-.7-4.8-1.2-8.1-2.5-15.5-.5-3-1.2-7.3-1.5-9.5-1.4-10.9-.3-12.2-24.3 30.9-12.3 22.1-26.6 47.7-31.8 57.1-5.3 9.3-11.2 19.9-13.1 23.5-3.1 5.6-47.6 85.4-53 95-1.1 1.9-6.1 11.1-11.2 20.3-5.2 9.2-9.5 16.7-9.6 16.5-.3-.3-67.5-122.1-72.7-131.7-1.7-3.1-5-9-7.3-13.1s-5.6-10-7.2-13c-1.7-3-6.5-11.8-10.8-19.5-4.3-7.7-9.1-16.5-10.8-19.5-1.6-3-4.1-7.5-5.5-10-1.4-2.5-6-10.8-10.2-18.5-4.2-7.7-9.4-17-11.5-20.8-2-3.7-4-6.7-4.5-6.7-.4 0-1.1 2.6-1.5 5.7-.4 3.2-.9 6.6-1.1 7.8-.4 2.1-6.2 36-6.9 40.5-.2 1.4-1.5 9.5-3 18-2.6 15.4-3.1 18.4-3.9 23.7-.3 1.6-1.2 7.1-2.1 12.3-.9 5.2-1.8 10.8-2.1 12.5-.5 3.3-1.5 9-2 12-.5 2.6-4.4 26.1-5 30-.3 1.6-1.6 9.3-2.9 17-1.4 7.7-2.7 15.8-3 18-.4 2.2-1.3 7.6-2 12-1.5 8.5-2 11.4-3 18.5-.4 2.4-.8 4.7-1 5-.2.3-.6 3-1 6s-.8 5.7-1 6c-.2.3-.8 3.9-1.4 8-.6 4.1-1.3 8.6-1.6 10-.8 3.9-2.8 15.3-3 17.5-.1 1.1-.3 2.3-.4 2.7-.1.9-87.8.4-88.7-.5-.4-.4-.1-3.5.6-6.9.6-3.5 1.3-7 1.5-7.8.1-.8.6-3.7.9-6.4.4-2.7.9-5.2 1-5.5.2-.3.7-2.9 1-5.6.4-2.8.9-5.7 1.1-6.5.2-.8.6-3.1.9-5 .3-1.9 1.4-8.7 2.5-15 1.1-6.3 3.6-21 5.6-32.5 2-11.6 4.1-23.5 4.6-26.5s1.2-7.3 1.5-9.5c.3-2.2 1.1-7.2 1.9-11 .7-3.9 1.6-8.8 2-11 .4-2.2.9-4.9 1.1-6 .5-3.4 7.4-43.8 7.9-47 .3-1.7.7-3.9 1-5.1.3-1.2.7-3.9 1-6 .3-2.1 1.2-7.5 2-11.9s1.6-9.4 1.9-11c1.4-8.3 4.8-28.3 5.2-30.5.2-1.4.7-3.9.9-5.5.3-1.7.7-4.1 1-5.5.6-3.1 2.2-12.3 2.9-17 .3-1.9.8-4.6 1.1-6 1-5.6 9.2-53.1 13.5-79 2.6-15.8 2.5-14.9 4.3-25 .9-4.7 1.8-9.9 2-11.5.3-1.7 1.5-8.9 2.8-16.2l2.3-13.2 4.5-1.6c23.9-8.8 35.1-36.2 23.9-59-8.3-17.1-27.4-26.8-46.2-23.5zm15.4 27.6c4.7 2 8.2 7.3 8.8 13.4 1.3 13.5-14 22.4-25.5 14.8-11.7-7.7-9-25.2 4.6-29.4 4.1-1.3 7.1-1 12.1 1.2z"/></svg>