<?xml version="1.0" standalone="no"?>
<!DOCTYPE svg PUBLIC "-//W3C//DTD SVG 20010904//EN"
 "http://www.w3.org/TR/2001/REC-SVG-20010904/DTD/svg10.dtd">
<svg version="1.0" xmlns="http://www.w3.org/2000/svg"
 width="700.000000pt" height="700.000000pt" viewBox="0 0 700.000000 700.000000"
 preserveAspectRatio="xMidYMid meet">
<metadata>
Created by potrace 1.11, written by Peter Selinger 2001-2013
</metadata>
<g transform="translate(0.000000,700.000000) scale(0.100000,-0.100000)"
fill="#000000" stroke="none">
<path d="M1578 5823 c324 -648 815 -1631 1092 -2185 276 -555 505 -1008 508
-1008 4 0 85 143 180 318 95 174 238 436 318 582 80 146 164 299 186 340 23
41 60 109 83 150 23 41 58 106 79 143 20 37 45 82 55 100 10 18 39 73 66 122
26 50 65 119 85 155 32 55 125 225 240 435 15 28 41 76 58 108 18 31 45 81 61
110 15 28 40 72 53 97 42 76 254 462 284 517 15 29 29 52 30 50 1 -1 19 -87
38 -192 20 -104 41 -208 46 -230 5 -22 28 -137 50 -255 23 -118 47 -246 55
-285 8 -38 17 -81 19 -95 2 -14 23 -117 45 -230 47 -240 46 -239 61 -310 6
-30 13 -66 15 -80 3 -14 18 -95 35 -180 31 -153 97 -491 106 -540 17 -90 58
-297 70 -360 9 -41 18 -86 20 -100 3 -14 20 -104 39 -200 19 -96 36 -186 39
-200 2 -14 18 -95 35 -180 18 -85 34 -170 37 -189 3 -18 7 -41 9 -50 2 -9 15
-77 30 -151 14 -74 33 -165 41 -202 7 -36 17 -83 20 -105 3 -21 18 -99 34
-173 l27 -135 -47 -50 c-65 -69 -85 -101 -109 -173 -68 -202 27 -424 224 -521
313 -154 672 127 600 472 -18 86 -55 154 -118 217 -49 50 -153 110 -189 110
-23 0 -34 25 -52 125 -13 69 -67 347 -112 570 -8 39 -16 82 -19 96 -3 14 -19
95 -36 180 -17 85 -33 165 -35 179 -2 14 -7 36 -10 50 -3 14 -8 36 -10 50 -3
14 -18 90 -34 170 -27 135 -93 473 -104 530 -2 14 -16 81 -30 150 -14 69 -28
141 -31 160 -3 19 -8 42 -10 50 -2 8 -7 30 -10 48 -3 18 -12 64 -20 102 -8 38
-17 84 -20 102 -3 18 -17 85 -30 148 -13 63 -26 131 -30 150 -3 19 -14 78 -25
130 -11 52 -21 106 -24 120 -2 14 -18 93 -35 175 -16 83 -32 163 -35 179 -3
16 -10 52 -16 80 -6 28 -12 62 -15 76 -3 14 -9 48 -15 75 -5 28 -11 61 -14 75
-2 14 -7 36 -10 50 -3 14 -8 36 -10 50 -3 14 -14 70 -25 125 -11 55 -23 116
-26 135 -3 19 -10 53 -15 75 -5 22 -12 56 -15 75 -3 19 -10 53 -15 75 -5 22
-12 55 -15 74 -3 19 -20 103 -36 185 -17 83 -33 162 -35 176 -5 28 -43 214
-50 245 -2 11 -7 36 -10 55 -12 74 -3 70 -134 67 -66 -2 -121 -5 -123 -7 -2
-3 -75 -140 -162 -305 -86 -165 -174 -331 -195 -370 -21 -38 -79 -149 -130
-245 -96 -182 -120 -228 -262 -495 -47 -88 -111 -209 -143 -270 -106 -202
-147 -280 -185 -350 -21 -38 -61 -115 -90 -170 -29 -55 -67 -127 -85 -160 -18
-33 -55 -103 -82 -155 -28 -52 -93 -176 -146 -275 -52 -99 -122 -230 -154
-291 -32 -61 -65 -122 -74 -135 -16 -23 -30 5 -617 1176 -919 1837 -1200 2396
-1212 2410 -9 11 -54 14 -191 15 l-179 0 588 -1177z m4577 -4621 c104 -53 116
-204 22 -276 -81 -62 -192 -38 -244 52 -22 36 -25 51 -20 94 15 123 131 186
242 130z"/>
<path d="M986 5660 c-115 -20 -242 -113 -300 -219 -51 -95 -63 -216 -32 -325
20 -68 83 -165 136 -207 45 -36 44 -32 24 -149 -5 -33 -69 -405 -78 -460 -3
-14 -8 -43 -11 -65 -4 -22 -8 -44 -9 -50 -2 -5 -6 -32 -10 -60 -4 -27 -16 -97
-26 -155 -20 -111 -26 -141 -35 -204 -4 -21 -9 -48 -11 -60 -2 -11 -7 -41 -10
-66 -3 -25 -7 -47 -9 -50 -2 -3 -6 -30 -10 -60 -4 -30 -8 -57 -10 -60 -2 -3
-6 -26 -10 -50 -3 -25 -11 -69 -16 -99 -6 -30 -12 -64 -14 -75 -4 -30 -72
-430 -84 -493 -6 -29 -13 -74 -17 -100 -3 -26 -10 -67 -15 -91 -5 -23 -12 -59
-15 -80 -6 -39 -33 -197 -59 -347 -9 -49 -18 -106 -21 -125 -2 -19 -14 -87
-25 -150 -12 -63 -23 -124 -25 -135 -4 -23 -42 -254 -50 -300 -3 -16 -20 -118
-39 -225 -18 -107 -36 -208 -38 -225 -3 -16 -12 -73 -22 -125 -9 -52 -18 -106
-20 -120 -4 -27 -40 -233 -50 -290 -3 -19 -19 -114 -36 -210 -16 -96 -32 -187
-35 -203 l-6 -27 803 2 803 3 7 40 c4 22 10 58 13 80 4 22 9 51 11 65 2 14 26
160 54 325 27 165 52 314 55 330 3 17 12 71 20 120 9 50 18 108 21 130 3 22
10 65 16 95 5 30 11 69 14 85 3 17 8 46 11 65 10 58 12 73 19 115 9 62 24 157
30 185 2 13 7 42 10 65 3 22 8 47 10 55 2 8 6 33 10 55 5 37 21 132 30 180 2
11 4 29 4 40 1 27 11 14 71 -100 29 -55 113 -212 188 -350 74 -137 151 -281
172 -320 21 -38 68 -126 105 -195 69 -129 118 -220 188 -350 22 -41 47 -88 57
-105 9 -16 39 -70 65 -120 26 -49 60 -112 75 -140 15 -27 51 -95 81 -150 29
-55 65 -122 80 -150 l28 -50 123 0 123 0 118 215 c65 118 139 253 164 300 25
47 54 99 63 115 18 30 42 75 108 195 19 36 56 103 82 150 26 47 64 117 85 155
21 39 95 174 165 300 69 127 129 237 133 245 4 8 23 42 42 75 19 33 61 108 92
167 32 59 59 106 60 104 2 -2 27 -151 38 -231 3 -22 8 -51 10 -65 2 -14 7 -45
10 -70 3 -25 10 -70 15 -100 5 -30 12 -75 15 -100 3 -25 8 -56 10 -70 2 -14 7
-43 10 -65 3 -22 10 -67 15 -100 5 -33 12 -82 15 -110 4 -27 8 -57 10 -65 2
-8 7 -37 10 -65 7 -54 9 -66 25 -170 6 -38 13 -86 16 -105 2 -19 6 -46 9 -60
2 -14 7 -47 10 -75 4 -27 8 -57 10 -65 2 -8 7 -35 10 -60 3 -25 8 -56 10 -70
8 -58 17 -117 20 -140 3 -14 9 -56 15 -95 5 -38 13 -87 16 -108 l7 -37 1143 0
c629 0 1144 3 1144 6 0 3 -6 32 -14 63 -8 31 -17 70 -19 86 -7 42 -37 178 -40
181 -2 2 -810 11 -1702 18 l-190 2 -11 79 c-13 86 -14 97 -45 285 -22 142 -25
157 -34 220 -14 94 -21 137 -35 220 -6 30 -12 75 -15 100 -4 25 -10 68 -16 95
-5 28 -11 64 -13 80 -2 17 -9 64 -16 105 -6 41 -13 86 -15 100 -2 14 -9 57
-15 95 -6 39 -13 84 -16 100 -2 17 -6 41 -9 55 -3 14 -7 43 -10 65 -4 22 -17
110 -31 195 -13 85 -26 169 -29 185 -4 32 -22 144 -54 345 -11 69 -22 143 -26
165 -7 48 -12 81 -25 155 -5 30 -12 73 -15 95 -14 109 -3 122 -243 -309 -123
-221 -266 -477 -318 -571 -53 -93 -112 -199 -131 -235 -31 -56 -476 -854 -530
-950 -11 -19 -61 -111 -112 -203 -52 -92 -95 -167 -96 -165 -3 3 -675 1221
-727 1317 -17 31 -50 90 -73 131 -23 41 -56 100 -72 130 -17 30 -65 118 -108
195 -43 77 -91 165 -108 195 -16 30 -41 75 -55 100 -14 25 -60 108 -102 185
-42 77 -94 170 -115 208 -20 37 -40 67 -45 67 -4 0 -11 -26 -15 -57 -4 -32 -9
-66 -11 -78 -4 -21 -62 -360 -69 -405 -2 -14 -15 -95 -30 -180 -26 -154 -31
-184 -39 -237 -3 -16 -12 -71 -21 -123 -9 -52 -18 -108 -21 -125 -5 -33 -15
-90 -20 -120 -5 -26 -44 -261 -50 -300 -3 -16 -16 -93 -29 -170 -14 -77 -27
-158 -30 -180 -4 -22 -13 -76 -20 -120 -15 -85 -20 -114 -30 -185 -4 -24 -8
-47 -10 -50 -2 -3 -6 -30 -10 -60 -4 -30 -8 -57 -10 -60 -2 -3 -8 -39 -14 -80
-6 -41 -13 -86 -16 -100 -8 -39 -28 -153 -30 -175 -1 -11 -3 -23 -4 -27 -1 -9
-878 -4 -887 5 -4 4 -1 35 6 69 6 35 13 70 15 78 1 8 6 37 9 64 4 27 9 52 10
55 2 3 7 29 10 56 4 28 9 57 11 65 2 8 6 31 9 50 3 19 14 87 25 150 11 63 36
210 56 325 20 116 41 235 46 265 5 30 12 73 15 95 3 22 11 72 19 110 7 39 16
88 20 110 4 22 9 49 11 60 5 34 74 438 79 470 3 17 7 39 10 51 3 12 7 39 10
60 3 21 12 75 20 119 8 44 16 94 19 110 14 83 48 283 52 305 2 14 7 39 9 55 3
17 7 41 10 55 6 31 22 123 29 170 3 19 8 46 11 60 10 56 92 531 135 790 26
158 25 149 43 250 9 47 18 99 20 115 3 17 15 89 28 162 l23 132 45 16 c239 88
351 362 239 590 -83 171 -274 268 -462 235z m154 -276 c47 -20 82 -73 88 -134
13 -135 -140 -224 -255 -148 -117 77 -90 252 46 294 41 13 71 10 121 -12z"/>
</g>
</svg>
